<svg width="30" height="30" viewBox="0 0 30 30" fill="none" xmlns="http://www.w3.org/2000/svg">
<path d="M8.66617 2.65773C8.455 2.86487 8.28746 3.1109 8.17315 3.38176C8.05884 3.65262 8 3.94298 8 4.23621C8 4.52945 8.05884 4.81981 8.17315 5.09066C8.28746 5.36152 8.455 5.60756 8.66617 5.8147L17.5046 14.502L8.66617 23.1892C8.24025 23.6078 8.00096 24.1756 8.00096 24.7677C8.00096 25.3597 8.24025 25.9275 8.66617 26.3462C9.0921 26.7648 9.66977 27 10.2721 27C10.8745 27 11.4521 26.7648 11.8781 26.3462L22.3338 16.0692C22.545 15.8621 22.7125 15.6161 22.8269 15.3452C22.9412 15.0743 23 14.784 23 14.4908C23 14.1975 22.9412 13.9072 22.8269 13.6363C22.7125 13.3654 22.545 13.1194 22.3338 12.9123L11.8781 2.63534C11.0125 1.78452 9.55457 1.78453 8.66617 2.65773Z" fill="#1A1A1E"/>
</svg>
